<svg xmlns="http://www.w3.org/2000/svg" viewBox="0 0 720 340" font-family="system-ui, -apple-system, sans-serif" font-size="13">
  <defs>
    <marker id="arrow" markerWidth="8" markerHeight="6" refX="8" refY="3" orient="auto">
      <path d="M0,0 L8,3 L0,6" fill="none" stroke="#555" stroke-width="1.2"/>
    </marker>
    <marker id="arrow-rev" markerWidth="8" markerHeight="6" refX="0" refY="3" orient="auto">
      <path d="M8,0 L0,3 L8,6" fill="none" stroke="#555" stroke-width="1.2"/>
    </marker>
  </defs>

  <!-- Paper Cup Device outer box -->
  <rect x="20" y="20" width="380" height="300" rx="12" fill="#fafafa" stroke="#333" stroke-width="2"/>
  <text x="210" y="48" text-anchor="middle" font-size="15" font-weight="bold" fill="#333">Paper Cup Device</text>

  <!-- RP2350 label -->
  <text x="210" y="72" text-anchor="middle" font-size="12" fill="#666">RP2350 (Raspberry Pi Pico 2 W)</text>

  <!-- Core 0 box -->
  <rect x="50" y="88" width="150" height="130" rx="8" fill="#e3f2fd" stroke="#1976d2" stroke-width="1.5"/>
  <text x="125" y="110" text-anchor="middle" font-weight="bold" fill="#1565c0">Core 0</text>
  <text x="125" y="132" text-anchor="middle" font-size="12" fill="#444">Audio (I2S/PIO)</text>
  <text x="125" y="152" text-anchor="middle" font-size="12" fill="#444">LCD (ST7789)</text>
  <text x="125" y="172" text-anchor="middle" font-size="12" fill="#444">Button Input</text>
  <text x="125" y="192" text-anchor="middle" font-size="12" fill="#444">TTS Playback</text>

  <!-- Core 1 box -->
  <rect x="220" y="88" width="150" height="130" rx="8" fill="#e8f5e9" stroke="#388e3c" stroke-width="1.5"/>
  <text x="295" y="110" text-anchor="middle" font-weight="bold" fill="#2e7d32">Core 1</text>
  <text x="295" y="132" text-anchor="middle" font-size="12" fill="#444">WiFi / HTTPS</text>
  <text x="295" y="152" text-anchor="middle" font-size="12" fill="#444">TLS (mbedTLS)</text>
  <text x="295" y="172" text-anchor="middle" font-size="12" fill="#444">Timeline Poll</text>
  <text x="295" y="192" text-anchor="middle" font-size="12" fill="#444">TTS Streaming</text>

  <!-- Inter-core arrow -->
  <line x1="200" y1="153" x2="220" y2="153" stroke="#888" stroke-width="1.5" stroke-dasharray="4,3" marker-end="url(#arrow)" marker-start="url(#arrow-rev)"/>
  <text x="210" y="145" text-anchor="middle" font-size="9" fill="#888">FIFO</text>

  <!-- Peripherals -->
  <rect x="50" y="240" width="320" height="55" rx="8" fill="#fff3e0" stroke="#e65100" stroke-width="1.2"/>
  <text x="210" y="264" text-anchor="middle" font-size="12" fill="#bf360c">Speaker</text>
  <text x="120" y="282" text-anchor="middle" font-size="11" fill="#888">PicoAudio</text>
  <text x="300" y="282" text-anchor="middle" font-size="11" fill="#888">PicoLCD 1.3"</text>
  <text x="210" y="282" text-anchor="middle" font-size="11" fill="#888">Sensor</text>

  <!-- Core0 → Peripherals arrow -->
  <line x1="125" y1="218" x2="125" y2="240" stroke="#666" stroke-width="1.5" marker-end="url(#arrow)"/>

  <!-- Cloud / API Server box -->
  <rect x="470" y="70" width="230" height="200" rx="12" fill="#f3e5f5" stroke="#7b1fa2" stroke-width="2"/>
  <text x="585" y="98" text-anchor="middle" font-size="15" font-weight="bold" fill="#6a1b9a">API Server</text>

  <text x="500" y="130" font-size="12" fill="#444">/api/tunnel/info</text>
  <text x="510" y="150" font-size="10" fill="#999">→ Lab list (JSON)</text>

  <text x="500" y="180" font-size="12" fill="#444">/api/qa/timeline</text>
  <text x="510" y="200" font-size="10" fill="#999">→ New messages (JSON)</text>

  <text x="500" y="230" font-size="12" fill="#444">/api/tts/generate_stream</text>
  <text x="510" y="250" font-size="10" fill="#999">→ PCM audio (16-bit mono)</text>

  <!-- WiFi arrow  Core1 ↔ Cloud -->
  <line x1="370" y1="153" x2="470" y2="153" stroke="#555" stroke-width="2" marker-end="url(#arrow)" marker-start="url(#arrow-rev)"/>
  <rect x="393" y="133" width="52" height="20" rx="4" fill="#fff" stroke="#aaa" stroke-width="1"/>
  <text x="419" y="148" text-anchor="middle" font-size="11" font-weight="bold" fill="#555">WiFi</text>
</svg>
